<?xml version="1.0" encoding="UTF-8" standalone="no"?>
<!-- Created with Inkscape (http://www.inkscape.org/) -->

<svg
   width="151.7011"
   height="424.48438"
   id="svg2"
   version="1.1"
   inkscape:version="1.1 (c68e22c387, 2021-05-23)"
   sodipodi:docname="Nintendo_Switch_Joy-Con_illustration.svg"
   xmlns:inkscape="http://www.inkscape.org/namespaces/inkscape"
   xmlns:sodipodi="http://sodipodi.sourceforge.net/DTD/sodipodi-0.dtd"
   xmlns="http://www.w3.org/2000/svg"
   xmlns:svg="http://www.w3.org/2000/svg"
   xmlns:rdf="http://www.w3.org/1999/02/22-rdf-syntax-ns#"
   xmlns:cc="http://creativecommons.org/ns#"
   xmlns:dc="http://purl.org/dc/elements/1.1/">
  <defs
     id="defs4" />
  <sodipodi:namedview
     id="base"
     pagecolor="#ffffff"
     bordercolor="#666666"
     borderopacity="1.0"
     inkscape:pageopacity="0.0"
     inkscape:pageshadow="2"
     inkscape:zoom="1.035"
     inkscape:cx="42.995169"
     inkscape:cy="226.57005"
     inkscape:document-units="px"
     inkscape:current-layer="layer1"
     showgrid="false"
     inkscape:window-width="1920"
     inkscape:window-height="1009"
     inkscape:window-x="-8"
     inkscape:window-y="-8"
     inkscape:window-maximized="1"
     inkscape:pagecheckerboard="0"
     fit-margin-top="0"
     fit-margin-left="0"
     fit-margin-right="0"
     fit-margin-bottom="0" />
  <metadata
     id="metadata7">
    <rdf:RDF>
      <cc:Work
         rdf:about="">
        <dc:format>image/svg+xml</dc:format>
        <dc:type
           rdf:resource="http://purl.org/dc/dcmitype/StillImage" />
      </cc:Work>
    </rdf:RDF>
  </metadata>
  <g
     inkscape:label="Livello 1"
     inkscape:groupmode="layer"
     id="layer1"
     transform="translate(-1019.1691,-446.66499)">
    <path
       style="fill:#ff5f53;fill-opacity:1;stroke:#000000;stroke-width:1px;stroke-linecap:butt;stroke-linejoin:miter;stroke-opacity:1"
       d="m 1021.7462,547.09278 h 4.1985 v 34.51565 h -4.1101 c -1.4355,0 -2.1655,-1.00126 -2.1655,-2.16551 v -30.53818 c 0,-1.10492 0.8085,-1.81196 2.0771,-1.81196 z"
       id="path3822"
       inkscape:connector-curvature="0"
       sodipodi:nodetypes="ccccccc" />
    <path
       sodipodi:nodetypes="ccccccc"
       inkscape:connector-curvature="0"
       id="path3824"
       d="m 1021.7462,750.85843 h 4.1985 v -34.51565 h -4.1101 c -1.4355,0 -2.1655,1.00126 -2.1655,2.16551 v 30.53818 c 0,1.10492 0.8085,1.81196 2.0771,1.81196 z"
       style="fill:#ff5f53;fill-opacity:1;stroke:#000000;stroke-width:1px;stroke-linecap:butt;stroke-linejoin:miter;stroke-opacity:1" />
    <path
       style="fill:#44484c;fill-opacity:1;stroke:#000000;stroke-width:1px;stroke-linecap:butt;stroke-linejoin:miter;stroke-opacity:1"
       d="m 1021.2159,475.40983 h 14.0096 v 335.59891 h -6.5552 v 13.9375 c 0,1.5574 -1.3082,4.18497 -2.4162,4.18497 h -4.8807 c -0.8953,0 -1.7018,-0.69146 -1.7018,-1.70186 v -65.24352 c 0,-8.61907 5.3892,-8.72486 5.3892,-11.4463 V 716.1355 c 0,-2.45548 -5.2591,-3.05964 -5.2591,-10.07628 V 591.50793 c 0,-6.95525 5.2591,-7.42304 5.2591,-10.07628 l -0.125,-34.02951 c 0,-2.34388 -5.2591,-4.1493 -5.2591,-10.38563 v -59.80577 c -0.01,-0.98171 0.4742,-1.80091 1.5357,-1.80091 z"
       id="path3820"
       inkscape:connector-curvature="0"
       sodipodi:nodetypes="cccccccccccccccccc" />
    <path
       style="fill:#44484c;fill-opacity:1;stroke:#000000;stroke-width:1px;stroke-linecap:butt;stroke-linejoin:miter;stroke-opacity:1"
       d="m 1056.7015,454.00874 v -4.1875 c 0,-1.25689 1.2838,-2.65625 2.6563,-2.65625 h 26.25 c 40.4935,0 76.7398,32.66191 82.9515,55.8441 0.2833,1.05756 0.385,3.18198 -1.4584,3.18198 h -4.6625 z"
       id="path3818"
       inkscape:connector-curvature="0"
       sodipodi:nodetypes="cccccccc" />
    <path
       style="fill:#ff5f53;fill-opacity:1;stroke:#000000;stroke-width:1px;stroke-linecap:butt;stroke-linejoin:miter;stroke-opacity:1"
       d="m 1033.8578,456.16499 v 412.68747 c 0,1.0235 0.5059,1.7969 1.7969,1.7969 h 49.6406 c 51.6795,0 85.0749,-45.69766 85.0749,-85.07485 V 537.63374 c 0,-57.88508 -56.7644,-84.71894 -84.719,-84.71894 h -48.7906 c -2.4861,0 -3.0028,1.36797 -3.0028,3.25019 z"
       id="path3923"
       inkscape:connector-curvature="0"
       sodipodi:nodetypes="ccccccccc" />
    <path
       style="fill:#44484c;fill-opacity:1;stroke:#000000;stroke-width:1px;stroke-linecap:round;stroke-linejoin:round;stroke-opacity:1"
       d="m 1045.1376,490.63157 h 7.6077 v -7.51301 h 6.3134 v 7.54457 h 7.4815 v 6.31346 h -7.4499 v 7.79711 h -6.4081 v -7.79711 h -7.5131 z"
       id="path3093"
       inkscape:connector-curvature="0" />
    <circle
       style="fill:#44484c;fill-opacity:1;stroke:#000000;stroke-width:0.82506;stroke-linecap:round;stroke-linejoin:round;stroke-miterlimit:4;stroke-dasharray:none;stroke-opacity:1"
       id="path3095"
       transform="matrix(1.2120324,0,0,1.2120324,474.70978,392.04867)"
       cx="513.92859"
       cy="111.07143"
       r="12.5" />
    <circle
       transform="matrix(1.2120324,0,0,1.2120324,474.70978,454.67813)"
       id="path3865"
       style="fill:#44484c;fill-opacity:1;stroke:#000000;stroke-width:0.82506;stroke-linecap:round;stroke-linejoin:round;stroke-miterlimit:4;stroke-dasharray:none;stroke-opacity:1"
       cx="513.92859"
       cy="111.07143"
       r="12.5" />
    <circle
       transform="matrix(0,1.2120324,-1.2120324,0,1200.9152,-64.912531)"
       id="path3867"
       style="fill:#44484c;fill-opacity:1;stroke:#000000;stroke-width:0.82506;stroke-linecap:round;stroke-linejoin:round;stroke-miterlimit:4;stroke-dasharray:none;stroke-opacity:1"
       cx="513.92859"
       cy="111.07143"
       r="12.5" />
    <circle
       style="fill:#44484c;fill-opacity:1;stroke:#000000;stroke-width:0.82506;stroke-linecap:round;stroke-linejoin:round;stroke-miterlimit:4;stroke-dasharray:none;stroke-opacity:1"
       id="path3869"
       transform="matrix(0,1.2120324,-1.2120324,0,1263.5447,-64.912531)"
       cx="513.92859"
       cy="111.07143"
       r="12.5" />
    <circle
       transform="matrix(1.3463589,0,0,1.3463589,382.91658,602.88671)"
       id="path3879"
       style="fill:#999595;fill-opacity:1;stroke:#000000;stroke-width:0.742744;stroke-linecap:round;stroke-linejoin:round;stroke-miterlimit:4;stroke-dasharray:none;stroke-opacity:1"
       cx="513.92859"
       cy="111.07143"
       r="12.5" />
    <circle
       style="fill:#3a3d40;fill-opacity:1;stroke:#000000;stroke-width:0.99449;stroke-linecap:round;stroke-linejoin:round;stroke-miterlimit:4;stroke-dasharray:none;stroke-opacity:1"
       id="path3881"
       transform="matrix(1.005541,0,0,1.005541,558.07258,640.89492)"
       cx="513.92859"
       cy="111.07143"
       r="12.5" />
    <path
       style="fill:#000000;stroke:#000000;stroke-width:1;stroke-linecap:butt;stroke-linejoin:miter;stroke-miterlimit:4;stroke-dasharray:none;stroke-opacity:1"
       d="m 1066.0076,751.91216 h 2.4839 v 7.81748 c 4.164,0 8.8172,0 12.6021,0 v -7.81748 h 2.4838 c -2.7365,-2.54478 -6.4194,-6.02 -8.7849,-8.1836 -2.8629,2.63179 -5.8803,5.47149 -8.7849,8.1836 z m 5.8566,0.13069 c 1.9375,0 4.1005,0 5.8566,0 v 4.99384 c -1.9355,0 -4.098,0 -5.8566,0 z"
       id="path3883"
       inkscape:connector-curvature="0"
       sodipodi:nodetypes="ccccccccccccc" />
    <circle
       style="fill:#44484c;fill-opacity:1;stroke:#000000;stroke-width:1;stroke-linecap:round;stroke-linejoin:round;stroke-miterlimit:4;stroke-dasharray:none;stroke-opacity:1"
       id="path3888"
       transform="translate(584.35788,416.07124)"
       cx="513.4375"
       cy="258.1875"
       r="32.0625" />
    <circle
       transform="matrix(0.70126019,0,0,0.70126019,737.74208,493.42453)"
       id="path3892"
       style="fill:#44484c;fill-opacity:1;stroke:#000000;stroke-width:1.426;stroke-linecap:round;stroke-linejoin:round;stroke-miterlimit:4;stroke-dasharray:none;stroke-opacity:1"
       cx="513.4375"
       cy="258.1875"
       r="32.0625" />
    <path
       style="fill:#000000;stroke:#000000;stroke-width:0.03125;stroke-linecap:round;stroke-linejoin:round;stroke-miterlimit:4;stroke-dasharray:none;stroke-opacity:1"
       d="m 1096.6335,648.14499 c 2e-4,-2.14499 0.01,-3.41233 0.016,-3.48046 0.03,-0.20675 0.1316,-0.40432 0.2892,-0.56195 0.4752,-0.4752 1.2834,-0.33419 1.5764,0.27505 0.1098,0.22838 0.1022,-0.0485 0.1025,3.71783 l 2e-4,3.40192 -0.7014,-8.2e-4 c -0.3858,-4.5e-4 -0.8323,0.004 -0.9922,0.0105 l -0.2908,0.0113 3e-4,-3.37331 z"
       id="path3899"
       inkscape:connector-curvature="0" />
    <path
       style="fill:#000000;fill-opacity:1;stroke:#000000;stroke-width:0.03125;stroke-linecap:round;stroke-linejoin:round;stroke-miterlimit:4;stroke-dasharray:none;stroke-opacity:1"
       d="m 1097.5139,704.56579 c -0.3894,-0.0436 -0.7247,-0.33325 -0.8473,-0.73195 -0.024,-0.0793 -0.027,-0.33014 -0.031,-3.23924 l -0.01,-3.1533 0.2308,0.0127 c 0.127,0.007 0.5737,0.0127 0.9928,0.0127 h 0.7619 v 3.15625 3.15625 l -0.035,0.10157 c -0.1044,0.30532 -0.3456,0.54509 -0.6513,0.64749 -0.1,0.0334 -0.2894,0.0509 -0.4081,0.0376 v 0 z"
       id="path3901"
       inkscape:connector-curvature="0" />
    <path
       style="fill:#000000;fill-opacity:1;stroke:#000000;stroke-width:0.03125;stroke-linecap:round;stroke-linejoin:round;stroke-miterlimit:4;stroke-dasharray:none;stroke-opacity:1"
       d="m 1120.78,674.54905 c 0,-0.35469 -0.01,-0.80142 -0.013,-0.99274 l -0.013,-0.34784 3.2314,0.004 3.2315,0.004 0.1146,0.0419 c 0.4311,0.15748 0.6991,0.55501 0.6699,0.99393 -0.016,0.24326 -0.1116,0.45768 -0.2809,0.63065 -0.1328,0.13572 -0.2576,0.20774 -0.488,0.28161 -0.05,0.016 -0.7115,0.021 -3.2578,0.0246 l -3.1953,0.005 v -0.6449 0 z"
       id="path3903"
       inkscape:connector-curvature="0" />
    <path
       style="fill:#000000;fill-opacity:1;stroke:#000000;stroke-width:0.03125;stroke-linecap:round;stroke-linejoin:round;stroke-miterlimit:4;stroke-dasharray:none;stroke-opacity:1"
       d="m 1068.1082,675.17688 c -0.2151,-0.0284 -0.4251,-0.1369 -0.5782,-0.2988 -0.5328,-0.56321 -0.264,-1.4625 0.4922,-1.64714 0.071,-0.0172 0.6891,-0.0211 3.4498,-0.0215 l 3.3639,-5.6e-4 -0.012,0.33203 c -0.01,0.18262 -0.012,0.62911 -0.012,0.9922 v 0.66016 l -3.3047,-0.002 c -1.8176,-10e-4 -3.3469,-0.008 -3.3984,-0.0144 z"
       id="path3905"
       inkscape:connector-curvature="0" />
    <path
       style="fill:#ffffff;stroke:none"
       d="m 1090.29,534.77866 c 0,-0.011 1.2297,-1.8951 2.7327,-4.1899 l 2.7327,-4.1728 -2.4219,-3.741 c -1.332,-2.0575 -2.4524,-3.7844 -2.4897,-3.8374 l -0.068,-0.096 h 1.8741 1.8741 l 1.6069,2.5766 c 0.8838,1.4172 1.6223,2.5715 1.6411,2.5652 0.019,-0.011 0.7381,-1.1618 1.5984,-2.5678 l 1.564,-2.5565 1.8463,-0.011 c 1.0154,-0.011 1.8462,0 1.8462,0.011 0,0.011 -1.1131,1.7561 -2.4737,3.8803 -1.4161,2.2111 -2.4674,3.8862 -2.459,3.9184 0.01,0.031 1.2317,1.8881 2.7191,4.1272 1.4874,2.239 2.7044,4.08 2.7044,4.0912 0,0.011 -0.8636,0.019 -1.9192,0.019 h -1.9192 l -1.7839,-2.7879 c -1.4407,-2.2517 -1.7922,-2.7792 -1.827,-2.7417 -0.024,0.025 -0.8356,1.2807 -1.8041,2.7894 l -1.761,2.743 h -1.9067 c -1.0487,0 -1.9068,-0.011 -1.9068,-0.017 z"
       id="path3808"
       inkscape:connector-curvature="0" />
    <path
       style="fill:#ffffff;stroke:none"
       d="m 1121.2586,565.85776 c 0.06,-0.1594 6.0657,-15.5775 6.142,-15.7691 l 0.087,-0.219 h 1.6913 1.6913 l 3.1969,7.9809 c 1.7583,4.3895 3.2049,8.0007 3.2147,8.025 0.014,0.035 -0.3352,0.042 -1.7274,0.034 l -1.7454,-0.01 -0.7027,-1.8308 -0.7027,-1.8308 -3.2235,0.01 -3.2235,0.01 -0.6646,1.831 -0.6646,1.8309 h -1.6961 c -1.6009,0 -1.6949,-0.01 -1.673,-0.061 z m 10.1023,-6.3252 c -0.01,-0.024 -0.5101,-1.3729 -1.1133,-2.9974 -0.6031,-1.6245 -1.1071,-2.9412 -1.1199,-2.9261 -0.017,0.02 -1.3062,3.548 -2.1646,5.9235 -0.013,0.034 0.4421,0.043 2.1993,0.043 1.7577,0 2.2118,-0.01 2.1985,-0.043 z"
       id="path3810"
       inkscape:connector-curvature="0" />
    <path
       style="fill:#ffffff;stroke:none"
       d="m 1091.6637,589.64516 v -8.0101 l 3.9597,0.017 c 3.9479,0.017 4.3741,0.03 5.1658,0.15 1.2013,0.1824 2.1874,0.7962 2.8382,1.7668 0.9894,1.4755 0.8297,3.4004 -0.3893,4.6926 -0.2842,0.3013 -0.5564,0.5122 -0.9357,0.7248 l -0.2945,0.165 0.2385,0.079 c 0.5815,0.1918 1.1967,0.5442 1.6096,0.9222 0.4846,0.4434 0.9019,1.1471 1.0833,1.8267 0.083,0.3094 0.092,0.4089 0.095,0.9908 0,0.5046 -0.011,0.7103 -0.061,0.9359 -0.202,0.9189 -0.6473,1.7732 -1.2383,2.3756 -0.7564,0.7709 -1.6842,1.1619 -3.0094,1.2683 -0.6601,0.053 -3.8754,0.1033 -6.6759,0.1044 h -2.3863 v -8.0101 z m 7.9838,5.2825 c 0.7397,-0.061 1.1341,-0.2114 1.5249,-0.58 0.4041,-0.3812 0.5715,-0.8216 0.5702,-1.4999 0,-1.0456 -0.5682,-1.7782 -1.5522,-2.0082 -0.5699,-0.1332 -0.9044,-0.1511 -3.1335,-0.1676 l -2.1765,-0.016 v 2.1535 2.1536 h 2.1765 c 1.197,-3e-4 2.3628,-0.016 2.5906,-0.035 v 0 z m -1.2882,-6.9206 c 1.1673,-0.033 1.401,-0.067 1.8218,-0.2663 0.4402,-0.2088 0.7503,-0.5556 0.8968,-1.003 0.1002,-0.3058 0.1,-0.9302 -10e-4,-1.241 -0.1887,-0.5831 -0.6217,-0.9586 -1.2873,-1.1163 -0.2076,-0.049 -0.5707,-0.059 -2.5755,-0.072 l -2.3338,-0.014 v 1.8731 1.8732 h 1.2149 c 0.6683,0 1.687,-0.015 2.2639,-0.031 v 0 z"
       id="path3814"
       inkscape:connector-curvature="0" />
    <path
       style="fill:#ffffff;stroke:none"
       d="m 1064.7658,562.86006 v -3.3693 l -2.913,-4.6053 c -1.6022,-2.5328 -2.9131,-4.6117 -2.9131,-4.6196 0,-0.01 0.836,-0.014 1.8577,-0.014 l 1.8578,4e-4 1.8838,3.1716 c 1.4011,2.3587 1.8938,3.1611 1.9224,3.1307 0.021,-0.022 0.8587,-1.4499 1.8611,-3.1719 l 1.8224,-3.1311 h 1.8323 1.8322 l -0.05,0.079 c -0.028,0.043 -1.3481,2.1286 -2.9345,4.6344 l -2.8842,4.5559 v 3.3546 3.3546 h -1.5874 -1.5873 v -3.3694 z"
       id="path3816"
       inkscape:connector-curvature="0" />
  </g>
</svg>
