<?xml version="1.0" encoding="UTF-8" standalone="no"?>
<!-- Created with Inkscape (http://www.inkscape.org/) -->

<svg
   width="151.88142"
   height="423.86697"
   id="svg2"
   version="1.1"
   inkscape:version="1.1 (c68e22c387, 2021-05-23)"
   sodipodi:docname="Nintendo_Switch_Joy-Con_illustration.svg"
   xmlns:inkscape="http://www.inkscape.org/namespaces/inkscape"
   xmlns:sodipodi="http://sodipodi.sourceforge.net/DTD/sodipodi-0.dtd"
   xmlns="http://www.w3.org/2000/svg"
   xmlns:svg="http://www.w3.org/2000/svg"
   xmlns:rdf="http://www.w3.org/1999/02/22-rdf-syntax-ns#"
   xmlns:cc="http://creativecommons.org/ns#"
   xmlns:dc="http://purl.org/dc/elements/1.1/">
  <defs
     id="defs4" />
  <sodipodi:namedview
     id="base"
     pagecolor="#ffffff"
     bordercolor="#666666"
     borderopacity="1.0"
     inkscape:pageopacity="0.0"
     inkscape:pageshadow="2"
     inkscape:zoom="1.035"
     inkscape:cx="74.879227"
     inkscape:cy="151.20773"
     inkscape:document-units="px"
     inkscape:current-layer="layer1"
     showgrid="false"
     inkscape:window-width="1920"
     inkscape:window-height="1009"
     inkscape:window-x="-8"
     inkscape:window-y="-8"
     inkscape:window-maximized="1"
     inkscape:pagecheckerboard="0"
     width="1199px"
     fit-margin-top="0"
     fit-margin-left="0"
     fit-margin-right="0"
     fit-margin-bottom="0" />
  <metadata
     id="metadata7">
    <rdf:RDF>
      <cc:Work
         rdf:about="">
        <dc:format>image/svg+xml</dc:format>
        <dc:type
           rdf:resource="http://purl.org/dc/dcmitype/StillImage" />
      </cc:Work>
    </rdf:RDF>
  </metadata>
  <g
     inkscape:label="Livello 1"
     inkscape:groupmode="layer"
     id="layer1"
     transform="translate(-524.54769,-423.47658)">
    <path
       sodipodi:nodetypes="ccccccc"
       inkscape:connector-curvature="0"
       id="path3828"
       d="m 673.85199,523.90437 h -4.19844 v 34.51565 h 4.11005 c 1.43551,0 2.16552,-1.00126 2.16552,-2.16551 v -30.53818 c 0,-1.10492 -0.80847,-1.81196 -2.07713,-1.81196 z"
       style="fill:#00bbdb;fill-opacity:1;stroke:#000000;stroke-width:1px;stroke-linecap:butt;stroke-linejoin:miter;stroke-opacity:1" />
    <path
       style="fill:#00bbdb;fill-opacity:1;stroke:#000000;stroke-width:1px;stroke-linecap:butt;stroke-linejoin:miter;stroke-opacity:1"
       d="m 673.85199,727.67002 h -4.19844 v -34.51565 h 4.11005 c 1.43551,0 2.16552,1.00126 2.16552,2.16551 v 30.53818 c 0,1.10492 -0.80847,1.81196 -2.07713,1.81196 z"
       id="path3830"
       inkscape:connector-curvature="0"
       sodipodi:nodetypes="ccccccc" />
    <path
       sodipodi:nodetypes="cccccccccccccccccc"
       inkscape:connector-curvature="0"
       id="path3826"
       d="m 674.38232,452.22142 h -14.00955 v 335.59891 h 6.55516 v 13.9375 c 0,1.5574 1.30818,4.18497 2.41619,4.18497 h 4.88068 c 0.89533,0 1.70187,-0.69146 1.70187,-1.70186 v -65.24352 c 0,-8.61907 -5.38924,-8.72486 -5.38924,-11.4463 v -34.60403 c 0,-2.45548 5.25911,-3.05964 5.25911,-10.07628 V 568.31952 c 0,-6.95525 -5.25911,-7.42304 -5.25911,-10.07628 l 0.125,-34.02951 c 0,-2.34388 5.25911,-4.1493 5.25911,-10.38563 l -0.003,-59.80577 c 0.009,-0.98171 -0.47425,-1.80091 -1.53575,-1.80091 z"
       style="fill:#44484c;fill-opacity:1;stroke:#000000;stroke-width:1px;stroke-linecap:butt;stroke-linejoin:miter;stroke-opacity:1" />
    <path
       sodipodi:nodetypes="cccccccc"
       inkscape:connector-curvature="0"
       id="path3832"
       d="m 638.51779,430.82033 v -4.1875 c 0,-1.25689 -1.28376,-2.65625 -2.65625,-2.65625 h -26.25 c -40.49355,0 -76.73982,32.66191 -82.95147,55.8441 -0.28337,1.05756 -0.38499,3.18198 1.4584,3.18198 h 4.66249 z"
       style="fill:#44484c;fill-opacity:1;stroke:#000000;stroke-width:1px;stroke-linecap:butt;stroke-linejoin:miter;stroke-opacity:1" />
    <path
       sodipodi:nodetypes="ccccccccc"
       inkscape:connector-curvature="0"
       id="path3925"
       d="m 661.56004,432.35916 v 412.68749 c 0,1.0235 -0.5059,1.7969 -1.79687,1.7969 h -49.64063 c -51.6795,0 -85.07485,-45.69768 -85.07485,-85.07487 V 513.82791 c 0,-57.88508 56.76438,-84.71894 84.71894,-84.71894 h 48.79057 c 2.4861,0 3.00284,1.36797 3.00284,3.25019 z"
       style="fill:#00bbdb;fill-opacity:1;stroke:#000000;stroke-width:1px;stroke-linecap:butt;stroke-linejoin:miter;stroke-opacity:1" />
    <circle
       id="path3871"
       style="fill:#44484c;fill-opacity:1;stroke:#000000;stroke-width:0.82506;stroke-linecap:round;stroke-linejoin:round;stroke-miterlimit:4;stroke-dasharray:none;stroke-opacity:1"
       cx="597.25262"
       cy="624.01813"
       r="15.150405" />
    <circle
       style="fill:#44484c;fill-opacity:1;stroke:#000000;stroke-width:0.82506;stroke-linecap:round;stroke-linejoin:round;stroke-miterlimit:4;stroke-dasharray:none;stroke-opacity:1"
       id="path3873"
       cx="597.25262"
       cy="686.64758"
       r="15.150405" />
    <circle
       style="fill:#44484c;fill-opacity:1;stroke:#000000;stroke-width:0.82506;stroke-linecap:round;stroke-linejoin:round;stroke-miterlimit:4;stroke-dasharray:none;stroke-opacity:1"
       id="path3875"
       transform="rotate(90)"
       cx="655.33289"
       cy="-565.93787"
       r="15.150405" />
    <circle
       transform="rotate(90)"
       id="path3877"
       style="fill:#44484c;fill-opacity:1;stroke:#000000;stroke-width:0.82506;stroke-linecap:round;stroke-linejoin:round;stroke-miterlimit:4;stroke-dasharray:none;stroke-opacity:1"
       cx="655.33289"
       cy="-628.56732"
       r="15.150405" />
    <rect
       style="fill:#44484c;fill-opacity:1;stroke:#000000;stroke-width:1;stroke-linecap:round;stroke-linejoin:round;stroke-miterlimit:4;stroke-dasharray:none;stroke-opacity:1"
       id="rect3890"
       width="22.1875"
       height="6.375"
       x="628.31171"
       y="467.44534" />
    <circle
       id="path3907"
       style="fill:#44484c;fill-opacity:1;stroke:#000000;stroke-width:1;stroke-linecap:round;stroke-linejoin:round;stroke-miterlimit:4;stroke-dasharray:none;stroke-opacity:1"
       cx="597.37421"
       cy="537.44531"
       r="32.0625" />
    <circle
       style="fill:#44484c;fill-opacity:1;stroke:#000000;stroke-width:1.426;stroke-linecap:round;stroke-linejoin:round;stroke-miterlimit:4;stroke-dasharray:none;stroke-opacity:1"
       id="path3909"
       cx="597.37421"
       cy="537.66772"
       r="22.484156" />
    <path
       inkscape:connector-curvature="0"
       id="path3911"
       d="m 596.21219,511.33158 c 2e-4,-2.14499 0.006,-3.41233 0.0158,-3.48046 0.0299,-0.20675 0.13156,-0.40432 0.28919,-0.56195 0.4752,-0.4752 1.28334,-0.33419 1.57638,0.27505 0.10984,0.22838 0.10221,-0.0485 0.10247,3.71783 l 2.3e-4,3.40192 -0.70143,-8.2e-4 c -0.38578,-4.5e-4 -0.83227,0.004 -0.99219,0.0105 l -0.29075,0.0113 3e-4,-3.37331 z"
       style="fill:#000000;stroke:#000000;stroke-width:0.03125;stroke-linecap:round;stroke-linejoin:round;stroke-miterlimit:4;stroke-dasharray:none;stroke-opacity:1" />
    <path
       inkscape:connector-curvature="0"
       id="path3913"
       d="m 597.09261,567.75238 c -0.38945,-0.0436 -0.7247,-0.33325 -0.8473,-0.73195 -0.0244,-0.0793 -0.0268,-0.33014 -0.0311,-3.23924 l -0.005,-3.1533 0.2308,0.0127 c 0.12694,0.007 0.57368,0.0127 0.99275,0.0127 h 0.76194 l -0.004,3.15625 -0.004,3.15625 -0.0347,0.10157 c -0.10445,0.30532 -0.34564,0.54509 -0.65134,0.64749 -0.0998,0.0334 -0.28935,0.0509 -0.40814,0.0376 v 0 z"
       style="fill:#000000;fill-opacity:1;stroke:#000000;stroke-width:0.03125;stroke-linecap:round;stroke-linejoin:round;stroke-miterlimit:4;stroke-dasharray:none;stroke-opacity:1" />
    <path
       inkscape:connector-curvature="0"
       id="path3915"
       d="m 620.3587,537.73564 c 0,-0.35469 -0.006,-0.80142 -0.0127,-0.99274 l -0.0127,-0.34784 3.23141,0.004 3.23141,0.004 0.11461,0.0419 c 0.43114,0.15748 0.6991,0.55501 0.66997,0.99393 -0.0161,0.24326 -0.11165,0.45768 -0.28091,0.63065 -0.13281,0.13572 -0.25762,0.20774 -0.48804,0.28161 -0.0498,0.016 -0.71149,0.021 -3.25781,0.0246 l -3.19532,0.005 v -0.6449 0 z"
       style="fill:#000000;fill-opacity:1;stroke:#000000;stroke-width:0.03125;stroke-linecap:round;stroke-linejoin:round;stroke-miterlimit:4;stroke-dasharray:none;stroke-opacity:1" />
    <path
       inkscape:connector-curvature="0"
       id="path3917"
       d="m 567.68683,538.36347 c -0.21504,-0.0284 -0.42503,-0.1369 -0.57817,-0.2988 -0.53275,-0.56321 -0.26401,-1.4625 0.49223,-1.64714 0.0705,-0.0172 0.68912,-0.0211 3.44981,-0.0215 l 3.36387,-5.6e-4 -0.0123,0.33203 c -0.007,0.18262 -0.0123,0.62911 -0.0123,0.9922 v 0.66016 l -3.30468,-0.002 c -1.81758,-0.001 -3.34688,-0.008 -3.39844,-0.0144 z"
       style="fill:#000000;fill-opacity:1;stroke:#000000;stroke-width:0.03125;stroke-linecap:round;stroke-linejoin:round;stroke-miterlimit:4;stroke-dasharray:none;stroke-opacity:1" />
    <rect
       style="fill:#44484c;fill-opacity:1;stroke:#000000;stroke-width:1;stroke-linecap:round;stroke-linejoin:round;stroke-miterlimit:4;stroke-dasharray:none;stroke-opacity:1"
       id="rect3919"
       width="25.75"
       height="25.125"
       x="607.43671"
       y="722.32031"
       ry="3.375" />
    <circle
       style="fill:#000000;stroke:#000000;stroke-width:1;stroke-linecap:round;stroke-linejoin:round;stroke-miterlimit:4;stroke-dasharray:none;stroke-opacity:1"
       id="path3921"
       cx="620.21796"
       cy="735.10156"
       r="8.84375" />
    <path
       sodipodi:type="star"
       style="fill:#000000;stroke:#000000;stroke-width:0.904694;stroke-linecap:round;stroke-linejoin:round;stroke-miterlimit:4;stroke-dasharray:none;stroke-opacity:1"
       id="path3014"
       sodipodi:sides="3"
       sodipodi:cx="138.28357"
       sodipodi:cy="856.82373"
       sodipodi:r1="6.6210189"
       sodipodi:r2="3.3105094"
       sodipodi:arg1="2.0943951"
       sodipodi:arg2="3.1415927"
       inkscape:flatsided="true"
       inkscape:rounded="0"
       inkscape:randomized="0"
       d="m 134.97306,862.5577 0,-11.46794 9.93153,5.73397 z"
       transform="matrix(1.1053456,0,0,1.1053456,475.33858,-291.72265)"
       inkscape:transform-center-x="-1.8296276"
       inkscape:transform-center-y="-1.0018697e-05" />
    <path
       inkscape:transform-center-y="-1.0018697e-05"
       inkscape:transform-center-x="1.8296245"
       transform="matrix(-1.1053456,0,0,1.1053456,719.3251,-291.72265)"
       d="m 134.97306,862.5577 0,-11.46794 9.93153,5.73397 z"
       inkscape:randomized="0"
       inkscape:rounded="0"
       inkscape:flatsided="true"
       sodipodi:arg2="3.1415927"
       sodipodi:arg1="2.0943951"
       sodipodi:r2="3.3105094"
       sodipodi:r1="6.6210189"
       sodipodi:cy="856.82373"
       sodipodi:cx="138.28357"
       sodipodi:sides="3"
       id="path3788"
       style="fill:#000000;stroke:#000000;stroke-width:0.904694;stroke-linecap:round;stroke-linejoin:round;stroke-miterlimit:4;stroke-dasharray:none;stroke-opacity:1"
       sodipodi:type="star" />
    <path
       transform="matrix(0,-1.1053456,1.1053456,0,-349.85323,777.52969)"
       d="m 134.97306,862.5577 0,-11.46794 9.93153,5.73397 z"
       inkscape:randomized="0"
       inkscape:rounded="0"
       inkscape:flatsided="true"
       sodipodi:arg2="3.1415927"
       sodipodi:arg1="2.0943951"
       sodipodi:r2="3.3105094"
       sodipodi:r1="6.6210189"
       sodipodi:cy="856.82373"
       sodipodi:cx="138.28357"
       sodipodi:sides="3"
       id="path3790"
       style="fill:#000000;stroke:#000000;stroke-width:0.904694;stroke-linecap:round;stroke-linejoin:round;stroke-miterlimit:4;stroke-dasharray:none;stroke-opacity:1"
       sodipodi:type="star"
       inkscape:transform-center-y="-1.8296239" />
    <path
       sodipodi:type="star"
       style="fill:#000000;stroke:#000000;stroke-width:0.904694;stroke-linecap:round;stroke-linejoin:round;stroke-miterlimit:4;stroke-dasharray:none;stroke-opacity:1"
       id="path3792"
       sodipodi:sides="3"
       sodipodi:cx="138.28357"
       sodipodi:cy="856.82373"
       sodipodi:r1="6.6210189"
       sodipodi:r2="3.3105094"
       sodipodi:arg1="2.0943951"
       sodipodi:arg2="3.1415927"
       inkscape:flatsided="true"
       inkscape:rounded="0"
       inkscape:randomized="0"
       d="m 134.97306,862.5577 0,-11.46794 9.93153,5.73397 z"
       transform="matrix(0,1.1053456,1.1053456,0,-349.85323,533.54316)"
       inkscape:transform-center-y="1.829623" />
  </g>
</svg>
